<?xml version="1.0" standalone="no"?>
<!DOCTYPE svg PUBLIC "-//W3C//DTD SVG 20010904//EN"
 "http://www.w3.org/TR/2001/REC-SVG-20010904/DTD/svg10.dtd">
<svg version="1.0" xmlns="http://www.w3.org/2000/svg"
 width="500.000000pt" height="500.000000pt" viewBox="0 0 500.000000 500.000000"
 preserveAspectRatio="xMidYMid meet">
<metadata>
Created by potrace 1.14, written by Peter Selinger 2001-2017
</metadata>
<g transform="translate(0.000000,500.000000) scale(0.100000,-0.100000)"
fill="#000000" stroke="none">
<path d="M1116 3213 c-14 -7 -27 -22 -31 -32 -8 -27 -18 -29 -190 -36 -82 -3
-170 -7 -195 -10 -45 -4 -203 -12 -423 -20 -120 -5 -177 -18 -127 -29 60 -13
104 -16 250 -17 110 -1 143 -4 115 -10 -22 -4 -58 -8 -80 -9 -43 0 -74 -14
-61 -27 4 -4 145 -8 314 -8 220 0 307 -4 309 -12 2 -6 -6 -14 -17 -18 -22 -7
-50 -59 -50 -93 0 -10 9 -35 20 -57 11 -22 20 -50 20 -62 0 -13 9 -32 21 -42
25 -22 25 -23 82 -82 74 -78 111 -71 193 40 10 13 17 10 53 -18 56 -45 93 -38
140 26 31 42 36 45 70 40 21 -2 112 -32 202 -65 100 -36 191 -63 230 -67 35
-4 69 -10 76 -14 8 -4 -29 -48 -103 -121 -249 -249 -374 -429 -415 -595 -6
-28 -21 -65 -32 -84 -14 -24 -22 -58 -25 -112 -4 -71 -3 -79 13 -79 17 0 17
-1 1 -18 -15 -17 -15 -24 -3 -73 l14 -54 48 -3 c29 -2 51 1 55 8 4 7 6 41 4
77 -3 64 -2 65 21 61 13 -3 29 -2 36 2 18 11 20 118 3 135 -8 7 -14 17 -14 21
0 4 -9 27 -21 51 -28 59 -20 111 33 199 133 222 376 477 532 556 38 20 41 20
98 2 32 -9 58 -21 58 -26 0 -4 -3 -8 -7 -9 -34 -3 -80 -10 -90 -14 -18 -6 -16
-51 4 -82 15 -23 15 -27 2 -37 -20 -14 -30 -63 -15 -75 6 -5 31 -10 56 -12 57
-3 70 -13 70 -53 0 -40 17 -64 50 -68 38 -5 37 -34 -2 -54 -28 -14 -88 -62
-171 -136 -13 -11 -21 -35 -24 -77 l-5 -61 78 -81 c133 -137 188 -164 252
-123 17 10 71 59 121 107 l91 88 -1 52 c0 29 -4 60 -8 70 -8 22 -181 167 -198
167 -17 0 -24 15 -17 34 3 9 17 16 29 16 29 0 38 13 45 65 5 39 6 40 55 48 28
5 57 12 65 17 19 10 15 58 -7 82 -14 15 -13 20 5 43 33 41 17 68 -48 80 -62
12 -55 25 23 44 46 11 52 10 95 -15 82 -48 205 -149 277 -229 39 -43 75 -83
80 -89 56 -60 187 -257 204 -305 16 -49 14 -108 -4 -115 -8 -3 -15 -18 -15
-33 0 -16 -8 -36 -19 -45 -15 -13 -18 -27 -16 -72 3 -65 5 -69 42 -70 26 -1
27 -3 28 -66 1 -36 3 -69 4 -73 0 -4 24 -7 52 -5 l52 3 14 50 c12 40 13 53 3
69 -9 15 -10 21 -1 24 22 7 13 132 -13 187 -13 27 -34 82 -46 120 -51 166
-136 288 -357 514 -89 91 -158 169 -155 173 4 4 38 9 76 13 38 3 94 15 125 27
31 11 118 42 195 69 l139 49 51 -55 c60 -65 81 -69 138 -23 35 27 42 30 52 17
62 -85 95 -104 142 -84 28 11 104 89 104 106 0 4 9 9 19 12 13 3 23 19 30 48
6 24 18 57 26 72 27 52 13 113 -32 143 -14 8 -22 18 -19 21 3 3 135 5 294 5
284 -1 332 2 332 19 0 11 -27 16 -115 24 -38 4 -72 9 -74 11 -3 2 56 4 130 3
140 -1 264 8 289 21 28 15 -38 22 -345 35 -71 3 -155 8 -185 10 -30 2 -129 7
-220 11 l-165 6 -31 33 c-58 61 -153 56 -195 -11 l-21 -35 -282 8 c-375 9
-635 9 -669 0 -18 -5 -25 -12 -20 -20 4 -7 6 -20 5 -29 -2 -10 0 -18 5 -19 4
0 15 -2 23 -4 29 -5 157 -16 315 -25 88 -5 169 -12 180 -14 11 -2 72 -9 136
-16 108 -12 116 -14 111 -33 -3 -10 -15 -31 -28 -44 -13 -14 -24 -32 -24 -39
0 -23 -39 -41 -179 -84 -173 -52 -229 -58 -333 -35 -73 17 -82 22 -103 56 -27
42 -68 77 -102 85 -12 4 -23 11 -23 16 0 6 -24 34 -54 64 -60 60 -101 81 -122
63 -11 -9 -17 -9 -28 0 -23 19 -63 -4 -130 -73 -34 -35 -76 -71 -93 -79 -35
-18 -83 -72 -83 -92 0 -14 -24 -23 -120 -44 -92 -21 -170 -8 -380 62 -81 28
-97 37 -109 62 -8 17 -25 43 -38 58 -13 16 -21 32 -18 37 2 4 55 13 117 19 62
7 124 14 138 16 40 6 158 15 255 20 225 12 287 23 266 49 -9 11 -9 15 1 19 22
8 0 20 -49 27 -53 8 -320 6 -684 -5 l-236 -7 -22 35 c-34 55 -104 72 -165 40z"/>
</g>
</svg>
